<?xml version="1.0" encoding="utf-8"?>
<!-- Generator: Adobe Illustrator 27.0.0, SVG Export Plug-In . SVG Version: 6.00 Build 0)  -->
<svg version="1.1" id="Layer_1" xmlns="http://www.w3.org/2000/svg" xmlns:xlink="http://www.w3.org/1999/xlink" x="0px" y="0px"
	 viewBox="0 0 1000 1024" style="enable-background:new 0 0 1000 1024;" xml:space="preserve">
<style type="text/css">
	.st0{fill:#1976D2;}
</style>
<path class="st0" d="M565.6,139.5c42.6,10.8,74.7,35,96.4,72.7c8.5,14.7,11.8,31,14.6,47.5c-1.3,0.4-1.7-0.3-2.1-1
	c-16.9-33.4-45.3-50.6-80.9-58.1c-37-7.8-71.9,1.1-105.6,14.5c-41.5,16.4-77.1,42-107,75.1c-21,23.3-39.4,48.5-51.8,77.6
	c-2.9,6.9-5.1,14.1-5.6,21.6c-0.2,3.3-1.3,8,3,8.6c3.8,0.5,7.1-2.4,8.7-6.6c2.4-6.7,5-13.4,7.8-20c9.7-23,23.9-43.1,39.8-62.3
	c25.7-31.1,57-55.2,92.8-73.3c20.4-10.3,42.2-16.7,64.8-20.5c23.3-3.9,45.9-3,68.3,4.4c20,6.6,37.3,17.4,49.2,35
	c9.6,14.3,16.9,30,15.9,47.7c-1,17.3-7.1,33.4-16.1,48.1c-4.2,7-7.8,13.8-8.1,22c-0.1,2.9-0.8,5.9-2,8.5c-4.4,10-3.5,19.8,0.3,29.8
	c5.1,13.5,4.5,27.4,1.4,41.3c-1.1,4.7-0.1,7.4,4.7,9.4c9.8,4,19.2,5.7,27.9-2c9.1-8,8.5-17.3,4-29.6c-0.5-1.5-1.9-2.6-1.9-4.6
	c3.2-1,5.4,0.9,7.6,2.3c13.3,8.6,17.9,24.4,11.9,41c-6.6,18.2-20.7,27.2-39,30.9c-2.4,0.5-4.8,0.9-7.2,1c-8,0.3-7.9,0.3-9.5,8.4
	c-2.6,13.1-5,26.2-8.1,39.1c-3.9,16-14,26.6-29.8,31.3c-4.3,1.3-6.4,3.5-6.2,7.9c0.4,11.3-8.5,15.8-15.8,21.1
	c-7.5,5.5-16.4,8.6-24.9,12.3c-10,4.3-19,9.9-25.1,19.4c-5.3,8.3-6.6,17.5-6.4,27.1c0.1,6.4,0,6.3-6.5,6.5c-6.3,0.2-12.7,0.4-19,0.9
	c-4.7,0.4-6.4-1.3-6.3-6c0.2-9.7-0.8-19.1-6.5-27.5c-5.5-8-13-13.1-21.9-16.3c-9-3.3-18.2-6-27.1-9.6c-16.1-6.5-31-15.1-41.6-29.5
	c-1.1-1.6-2.4-3.2-3.9-4.3c-7.8-5.6-10-13-9.4-22.4c1.3-19.4-6.8-36.8-13.1-54.6c-0.2-0.5-0.4-0.9-0.8-1.7c-2.7,3.2-3.8,6.4-5.1,9.5
	c-6.6,15.4-10.4,31.8-15.7,47.7c-2.7,8.1-6.6,15.6-12,22.2c-3,3.6-6.7,6.1-11,7.9c-7.9,3.3-12.7,1.3-15.6-6.9
	c-2.8-7.9-3.4-16.2-4.7-24.4c-0.5-2.9-0.5-5.9-1.3-8.7c-4.1-15.1-14.5-17.6-29-15.5c-4.4,0.6-8.3,2.8-12.2,4.8
	c-3.7,2-7.4,2.8-10.9-0.2c-3.8-3.4-4.1-7.7-2.1-12c4.1-9.1,11.3-15.8,18.1-22.8c13.3-13.7,29.8-23,46.7-31.4
	c0.9-0.4,1.7-0.9,2.6-1.4c-14.6-12.3-18.6-29.1-19.6-46.6c-2.4-41.1,8.9-78.7,29.6-113.9c19.5-33.1,43.4-62.4,73.8-86.2
	c37.9-29.7,80.4-49.3,127.8-57.1c20.1-3.3,40.5-2.7,60.6,1.6c0.3,0.1,0.6,0.2,0.9,0.2c2.5,0.5,5.4,0.9,6.4-1.8c1.1-3.2-2.1-4-4.2-5
	c-16.4-7.6-33.7-10.5-51.7-9.9c-27,0.9-52.1,8.8-76.7,19.1c-27,11.3-52.2,25.8-75,44.2c-38.9,31.3-68.4,69.9-88.7,115.4
	c-13,29.2-20.1,60-20,92.2c0,4.6,1.6,8.8,1,13.8c-2.7-4.3-5.8-8.4-8.1-12.9c-7.4-14.1-10.3-29.3-11-45.1
	c-2.2-53.6,15.7-100.3,48.5-141.7c40.6-51.2,94.4-81.9,157.2-97.2C504.1,133,534.8,132.1,565.6,139.5 M481,442.1
	c4.6-11.7,13.2-18.9,21-17.4c0.3,2.1-1.5,3.1-2.5,4.5c-7,9.3-5.1,23.6,4.1,30.6c9.9,7.6,20.6,7,31.4,2.8c12-4.7,21.2-14.5,33.8-18.3
	c-0.5-1.2-0.6-1.8-0.9-2.4c-3-5.6-2.6-6.6,3.3-8.8c12.2-4.6,24.4-7.5,37.6-2.9c4.9,1.7,10.4,1.3,14.1-3.8c3.5-4.9,1.9-9.6-0.3-14.2
	c-0.4-0.9-0.9-1.7-1.4-2.6c-7.4-13.9-15.1-27.7-22.3-41.8c-4.7-9.2-2.3-16.1,6.5-21.5c6.9-4.3,14.4-5.6,22.4-4.7
	c5.3,0.6,6.2-0.1,5.5-4.9c-1.2-8.5-2.6-17-3.9-25.5c-2.6-16.9-11.3-29.4-26.5-37.7c-8.4,6.8-16.7,13.8-26.9,18.2
	c-22.1,9.5-45.1,12.1-68.7,9.4c-11.3-1.3-22.5-3.2-32.3-9.8c-2-1.4-4.3-2.3-6.5-3.3c-3.3-1.4-5.3-0.6-5.6,3.4
	c-0.4,5.4,0.5,10.6,2.3,15.8c8.4,24.2,2.2,50.3-19.9,63.9c-2.2,1.4-4.1,3.2-6.2,4.8c-1.8,1.3-3.2,3-3.6,5.1
	c-3.6,15.3-5.4,30.4,3.4,44.8c7.7,12.5,3.3,21.6-11.3,24c-0.6,0.1-1.3,0.2-1.9,0.3c-11.4,1.9-20.6-4.1-22.6-15.4
	c-1.7-9.4-2.7-19-3.9-28.5c-0.7-5.2-2.9-9.5-6.9-13.1c-13.8-12.3-34-6.8-40.1,11c-2.9,8.3-2.8,16.9-1.8,25.6
	c2,17.1,11.9,29.6,24.5,40.2c12.3,10.4,23.3,11,36.9,2.5c6.8-4.3,8.6-3.6,10.5,4.4c6.1,26.4,22.6,44,46.5,55.4
	c15.9,7.6,32.7,12.5,49.7,17.1c22.3,6,44.7,11.6,68.1,11c9.1-0.2,17.9-1.9,24.2-9.5c5.5-6.5,3.7-14.5-3.9-18.3
	c-3.9-1.9-8.1-2.3-12.3-2.8c-4.2-0.5-8.4-1.1-11.8-4c-3.4-2.9-3.8-6.7-2.5-10.7c1.2-3.7,4.2-4.6,7.8-4.5c6.3,0.1,12.7,0,19,0
	c3.4,0,5.8-1.2,7-4.8c2.5-7.8-0.4-12.5-8.6-12.9c-13-0.5-25.9-0.2-38.6,3.8c-18,5.7-36.3,6.9-54.6,0.9
	C492.9,491.3,472.7,468,481,442.1 M423.1,583.5c7.3,6,15.9,9.4,25,11.5c4.7,1.1,9.5,1.8,14.7-1.6c-17-20.4-30.9-42.6-49.6-62.6
	c-0.5,2.6-0.7,3.5-0.8,4.4c-1.1,10.1,1.1,20,1.1,30.1C413.5,572.8,415.9,579.1,423.1,583.5z"/>
<path class="st0" d="M274.4,768.9c-38.9-22.9-63.7-55.8-74.3-99.4c-3.7-15.2-5.9-30.6-5.9-46.3c0.1-89.7,0-179.3,0.1-269
	c0-35.3,6.6-69.1,25.5-99.3c25.1-40,59.9-66.8,107-75.9c5.2-1,10.5-2,17.1-1c-5.1,3.9-9.1,7.8-13.2,11.4c-7.7,6.7-14.1,14.4-20,22.6
	c-3.5,4.9-7.7,8.4-13.3,11c-22.2,10.4-38.8,26.9-51.4,47.7c-10.2,16.9-16,35.3-18,54.7c-3.1,29.8-0.9,59.8-1.4,89.7
	c-0.5,34.3-0.6,68.6-0.5,103c0.1,37.9,0.3,75.8,0.9,113.7c0.2,14.3,3.1,28.4,7,42.2c1.1,3.9,2.5,5.2,6.8,3.1
	c26.4-13.1,52.6-26.5,79.5-38.4c18-8,35.1-17.8,53.2-25.6c5.3-2.3,10.1-6,15.4-8.4c7.1-3.2,9.1-1.7,8.8,6.1
	c-0.1,3.7-0.5,7.5-1.2,11.1c-1.6,9,0,17.5,4,25.5c9.8,19.5,17.2,40,26.4,59.8c7.7,16.5,14.9,33.2,20.7,50.5c0.7,2.2,2.3,2.9,4.5,2.9
	c18.4,0,36.8,0,55.2,0c1.5,0,2.9-0.1,4.4-1.4c-1.3-3.7-3.6-7.7,1.7-10.7c4.4-2.5,7.9-2.5,11.4,1.2c1.5,1.6,3.6,3.6,3.8,5.6
	c0.7,6.4,5,5.5,9.2,5.5c8,0,16-0.1,23.9,0.1c2.9,0.1,4.5-1,5.5-3.7c11.6-30.4,23.4-60.7,30.5-92.5c3.1-14,5.3-28.1,5.1-42.5
	c0-1.8-0.3-3.6,0.7-5.3c2.4-1.3,4.4,0.1,6.5,0.9c13.8,4.8,27.2,10.8,40.7,16.3c30.9,12.5,61.5,25.7,92.6,37.7
	c4.7,1.8,9.2,3.9,14.3,6c3.1-9.5,5.4-18.8,6.9-28.2c3.8-23.3,2.1-46.8,2.2-70.1c0.2-78.9,0-157.9-0.1-236.8c0-31-9.6-58.9-28.4-83.4
	c-9.6-12.4-20-24.7-35-30.4c-9.9-3.8-15.8-9.1-18.9-19.2c-2.6-8.3-8.1-15.5-13.7-22.3c-1.4-1.7-3.2-3.2-3.3-6
	c3.4-1.6,6.6-0.3,9.8,0.6c40,11.1,70.8,34.8,93.7,69.1c14.3,21.5,22.2,45.4,25.8,70.9c3.1,22,1.8,44.2,1.8,66.3
	c0.2,53.1,0.1,106.1,0.1,159.2c0,26.4,0.6,52.7-0.2,79.1c-1,32-8.3,62.6-25.3,90.1c-20.2,32.7-49.3,54.3-85.8,66.2
	c-22.8,7.4-46,10.9-70,10.9c-89.3-0.2-178.7-0.1-268,0c-5.7,0-10.9-1.5-16.4-3.1C312.7,784.9,292.4,780.5,274.4,768.9z"/>
<path class="st0" d="M506,707.1c3.5-7,10.1-10.3,16-8.4c5.9,1.9,9.9,7.5,8.9,12.8c-1.3,7-7.8,12.3-14.4,11.9
	c-6.3-0.4-10.6-5.2-10.9-12.1C505.5,710.1,505.8,708.8,506,707.1z"/>
<path class="st0" d="M480.2,367.5c7.1-9.8,14.2-19.1,25-24.7c6.5-3.4,13.3-5,20.6-5c11.2,0,22.5-0.1,33.4,3c5.5,1.6,10.7,4,14.2,8.9
	c2.8,3.9,3.4,8,1.3,12.4c-3.1,6.5-7.3,12.3-12.1,17.6c-4.4,5-10.2,7.7-16.7,8.2c-6,0.4-12,0.6-18,0.2c-5.7-0.4-9.4-4.2-11.7-9.2
	c-2-4.3-4.7-4.5-8.6-2.9c-3.4,1.4-6.1,3.7-9,5.7c-5.4,3.6-16.8,0.7-19.6-5.1C477.3,373.6,478.6,370.7,480.2,367.5z"/>
<path class="st0" d="M369.2,438.4c-3.7-7.1-3.8-14.4-3.2-21.7c0.5-6.2,4.9-9.7,10.2-11.9c4-1.6,7.7-0.4,10.6,2.7
	c4.5,4.7,5.7,10.6,3,16.2c-4.3,8.8-2.3,15.5,4.7,21.6c2.3,2,3.9,4.3,1.7,7.6c-2.2,3.4-5,4.6-8.7,3.3
	C379,453.1,374,446.2,369.2,438.4z"/>
</svg>
